# xmcd
#
# Track frame offsets:
#	150
#	15615
#	32992
#	50492
#	70432
#	86087
#	105340
#	123757
#	146645
#	160552
#	180107
#	196062
#	212687
#	227650
#	242305
#	259780
#
# Disc length: 3679 seconds
#
# Revision: 2
# Processed by: cddbd v1.5.2PL0 Copyright (c) Steve Scherf et al.
# Submitted via: audiograbber 1.83.01
#
DISCID=c70e5d10
DTITLE=MH1071 Monster Hits - Female Country Hits (MH)
DYEAR=2008
DGENRE=Karaoke
TTITLE0=Shania Twain - What Made You Say That (MH)
TTITLE1=Trisha Yearwood - The woman Before Me (MH)
TTITLE2=Faith Hill - You Can't Lose Me (MH)
TTITLE3=Martina McBride - Life #9 (MH)
TTITLE4=Lorrie Morgan - He Talks to Me (MH)
TTITLE5=Wynonna - No One Else On Earth (MH)
TTITLE6=The Judds - One Hundred And Two (MH)
TTITLE7=Patty Loveless - How can I Help You say Goodbye (MH)
TTITLE8=Highway 101 - Whiskey, If you Were A woman (MH)
TTITLE9=Reba McEntire - For My Broken Heart (MH)
TTITLE10=Pam Tillis - Let That Pony Run (MH)
TTITLE11=Lari White - That's My Baby (MH)
TTITLE12=Carlene Carter - Every little Thing (MH)
TTITLE13=Terri Clark - Better Things To Do (MH)
TTITLE14=Tanya Tucker - Some Kind Of Trouble (MH)
TTITLE15=Kathy Mattea - She Came From Fort Worth (MH)
EXTD=
EXTT0=
EXTT1=
EXTT2=
EXTT3=
EXTT4=
EXTT5=
EXTT6=
EXTT7=
EXTT8=
EXTT9=
EXTT10=
EXTT11=
EXTT12=
EXTT13=
EXTT14=
EXTT15=
PLAYORDER=
